<svg xmlns="http://www.w3.org/2000/svg" xmlns:xlink="http://www.w3.org/1999/xlink" id="Layer_1" x="0" y="0" version="1.1" viewBox="0 0 100 100" style="enable-background:new 0 0 100 100" xml:space="preserve"><style type="text/css">.st0{clip-path:url(#SVGID_2_)}.st1{fill:#f99d1c}.st2{fill:#0091a7}.st3{fill:#fecf8d}.st4{fill:#004c5c}.st5{fill:#d4711a}.st6{fill:#5eb6cc}</style><g><defs><rect id="SVGID_1_" width="100" height="100" x="0"/></defs><clipPath id="SVGID_2_"><use xlink:href="#SVGID_1_" style="overflow:visible"/></clipPath><g class="st0"><g><path d="M102.5,21.4h-106v14.3h106" class="st1"/><path d="M48.3,21.4h-6.7v14.3h6.7" class="st2"/><path d="M60.3,21.4h-6.7v14.3h6.7" class="st2"/><path d="M83.1,21.4H64.9v14.3h18.2" class="st2"/><path d="M34.9,21.4H16.7v14.3h18.2" class="st2"/><path d="M104.7,34.3V22.9c0-0.8-0.9-1.4-2.1-1.4H0v14.3h102.6C103.7,35.7,104.7,35.1,104.7,34.3z" class="st1"/><path d="M69.9,21.4h-6.7v14.3h6.7" class="st3"/><path d="M47.8,21.4h-6.7v14.3h6.7" class="st3"/><path d="M81.9,21.4h-6.7v14.3h6.7" class="st3"/><path d="M31.4,21.4H13.1v14.3h18.2" class="st3"/></g><g><path d="M102.5,0h-106v14.3h106" class="st4"/><path d="M50.1,0h-6.7v14.3h6.7" class="st2"/><path d="M62.1,0h-6.7v14.3h6.7" class="st2"/><path d="M88.5,0H70.3v14.3h18.2" class="st2"/><path d="M34.9,0H16.7v14.3h18.2" class="st2"/></g><g><path d="M102.5,85.7h-106V100h106" class="st4"/><path d="M21.2,85.7h-6.7V100h6.7" class="st2"/><path d="M33.2,85.7h-6.7V100h6.7" class="st2"/><path d="M86.2,85.7H68V100h18.2" class="st2"/></g><path d="M104.7,77.1V65.7c0-0.8-0.8-1.4-1.8-1.4H0v14.3h102.9C103.9,78.6,104.7,77.9,104.7,77.1z" class="st5"/><path d="M27.9,64.3h-6.7v14.3h6.7" class="st3"/><path d="M39.9,64.3h-6.7v14.3h6.7" class="st3"/><path d="M81.7,64.3H63.5v14.3h18.2" class="st3"/><g><path d="M104.7,55.7V44.3c0-0.8-0.8-1.4-1.8-1.4H0v14.3h102.9C103.9,57.1,104.7,56.5,104.7,55.7z" class="st6"/><path d="M104.7,55.7V44.3c0-0.8-0.8-1.4-1.8-1.4H0v14.3h102.9C103.9,57.1,104.7,56.5,104.7,55.7z" class="st2"/><path d="M77.1,42.9h-6.7v14.3h6.7" class="st4"/><path d="M89.1,42.9h-6.7v14.3h6.7" class="st4"/><path d="M53.1,42.9H34.9v14.3h18.2" class="st4"/></g></g></g></svg>